PathFileType	4	(X/Y/Z)	Patient4_TMGait_0pt3_01_right_03.trc.trc
DataRate	CameraRate	NumFrames	NumMarkers	Units	OrigDataRate	OrigDataStartFrame	OrigNumFrames
52.238805970149	52.238805970149	4	33	mm	52.238805970149	71	       141
Frame#	Time	Sacral			L.Shoulder			Chest			R.Shoulder			Neck			R.ASIS			L.ASIS			R.Thigh.Superior			R.Thigh.Lateral			R.Thigh.Inferior			R.Patella			L.Thigh.Superior			L.Thigh.Lateral			L.Thigh.Inferior			L.Patella			L.Shank.Superior			L.Shank.Lateral			L.Shank.Inferior			R.Shank.Superior			R.Shank.Lateral			R.Shank.Inferior			R.Heel			R.Midfoot.Superior			R.Midfoot.Lateral			R.Toe			L.Heel			L.Midfoot.Lateral			L.Midfoot.Superior			L.Toe			L.Elbow			L.Wrist			R.Elbow			R.Wrist			
		X1	Y1	Z1	X2	Y2	Z2	X3	Y3	Z3	X4	Y4	Z4	X5	Y5	Z5	X6	Y6	Z6	X7	Y7	Z7	X8	Y8	Z8	X9	Y9	Z9	X10	Y10	Z10	X11	Y11	Z11	X12	Y12	Z12	X13	Y13	Z13	X14	Y14	Z14	X15	Y15	Z15	X16	Y16	Z16	X17	Y17	Z17	X18	Y18	Z18	X19	Y19	Z19	X20	Y20	Z20	X21	Y21	Z21	X22	Y22	Z22	X23	Y23	Z23	X24	Y24	Z24	X25	Y25	Z25	X26	Y26	Z26	X27	Y27	Z27	X28	Y28	Z28	X29	Y29	Z29	X30	Y30	Z30	X31	Y31	Z31	X32	Y32	Z32	X33	Y33	Z33	

71	5.310000000000	805.541233088003	995.868361285999	555.089737299037	943.337278039016	1418.485012616809	339.312268181430	1074.217095444584	1356.795728525644	481.533370704322	1021.786327621209	1437.168867214214	664.167530670317	957.884610032646	1484.959387939269	493.753675242482	1046.656964229868	929.330104690023	639.599769809470	999.054953720867	954.604210962885	369.189535244059	1052.759206702410	717.559816811924	604.071370419806	959.000092653445	614.641386790221	666.198845658914	1019.373261689062	556.202894444103	579.777013661904	1003.016228681273	464.345099301157	583.168635028280	1082.496231088231	768.572488577515	403.940554693867	1030.879926252858	639.633502326859	330.476891328331	1128.616317308797	579.318937970580	396.551779687993	1149.114643813638	508.090165649563	393.545795534302	1123.674574473013	434.033072720936	380.681994032904	1043.106633473416	315.418492601242	322.590274721498	1111.970394735120	204.290100542898	380.645679216541	954.193465653308	382.472106124781	590.026856461103	863.689600429715	294.410002565561	651.331311143056	880.607262056157	195.234642379181	586.451171924746	718.287463326712	46.076617203164	552.573986693714	888.589483989218	96.068855791186	597.622563862760	796.496748736831	37.787581855586	631.926024890657	1004.754245952713	40.657807226914	635.919863731227	1000.634696823599	39.530298380593	410.444364206427	1078.202102979692	37.361550375070	333.351184783357	1157.764880185450	103.302210181969	361.521761002900	1287.640230878750	57.550418659719	339.050115229616	796.957527249347	1091.165020233724	268.134605264054	760.134155576591	834.905262423937	279.040040717225	1157.784263718505	1125.640988010415	781.679121187505	1386.259264471826	1191.471702039184	697.771425782391	
72	5.329142857143	806.892691336642	995.535748869705	552.463280673622	943.166642632468	1417.474962736811	334.989425613485	1075.100755628025	1356.031605461768	476.369119233334	1023.989241798288	1436.903103710153	659.137930374653	958.903569649309	1484.304591918638	489.074890989655	1048.257500610281	928.689769039583	635.873919013867	999.429368626073	953.711303561987	365.614048527352	1052.447888978290	716.501241842998	601.405206182434	957.656905810079	614.489810805214	664.179613002614	1017.303192395055	555.214267916293	578.020811834503	999.875116260063	463.515212567578	581.709399533231	1082.720923670084	767.202185243610	399.831515913818	1029.361912137558	638.143706864553	327.768731528188	1127.827543040776	577.660685796730	392.840253825694	1147.058494822894	506.512835917433	390.928849218259	1122.059128638670	432.400763668007	378.518011273794	1041.565853330476	313.615774505584	320.794754696812	1109.871370212177	202.854539124173	379.973263588066	950.724913504614	382.052222322571	588.882595693226	859.562567884353	294.820987385686	650.681283522340	875.847591652661	195.363915203754	586.144345940108	712.583237204656	46.848547953438	552.756996448684	883.190937565305	96.236242996661	597.671051043227	790.839637664467	38.179206999147	632.030324628939	999.074935066065	40.481481990904	635.953388654309	997.682001672282	38.945852463284	410.048056773611	1075.459863937118	36.698610412531	333.028470377958	1155.187693639507	102.048518106095	361.717975437092	1285.044483667901	55.854976078519	339.632813956560	793.549243937064	1091.754471173857	266.422225550541	753.414780484901	835.712376407942	277.323793019446	1164.901258056023	1127.698906288196	775.225741758373	1388.719116561772	1202.160546850367	687.077987637268	
73	5.348285714286	808.204632382861	995.156942907787	549.562142885174	943.246976465169	1416.326698690234	330.366225904023	1076.053507370883	1355.197301037701	471.082210288316	1026.054853221316	1436.603178623314	653.903160833791	960.013533590021	1483.611186602909	484.054742362080	1049.810163892397	928.072741243031	632.104074247754	999.915189031689	952.797529799229	361.949126926270	1052.466292649985	715.525873779402	598.670211382969	956.833652320545	614.286069665014	662.006769478919	1015.943164910373	554.250070909537	576.144554845272	997.603434826302	462.571279198345	580.189565643423	1083.258375338752	766.018232538884	395.849568944114	1028.282911399847	636.779848130089	325.167939000063	1127.429135059440	576.140458006667	389.247880754471	1145.356077424647	504.931457118469	388.434344099672	1120.569481380760	430.682628102416	376.463864605994	1039.616337251704	312.081562047234	319.161491621049	1106.848371470642	201.426055325225	379.454333934936	947.906078637370	381.585234279425	587.658940784351	855.876488308787	295.393966760773	649.947895293240	871.423573529199	195.605889484313	585.819991352166	706.971393854724	48.012921445287	552.948935230909	877.962559379174	96.493692413500	597.729071325731	785.251753812367	38.814363373448	632.130147065345	993.438727066636	40.247362026942	635.995439787666	993.253971710846	38.508300335525	409.948780703968	1071.049382317768	36.233211062612	332.827999604255	1151.047933463044	100.930003088501	361.952176395321	1280.783339007269	54.300738674894	339.881501540358	791.521303418347	1091.637016698770	264.251055108652	749.321616001188	835.614238913086	274.972005425854	1171.174443195845	1129.407027368821	768.667036566421	1390.626046223023	1211.190682888151	677.029926635765	
74	5.367428571429	809.474227144935	994.875485366193	546.419380613033	943.556499689459	1415.173313286449	325.483848729488	1077.070303049806	1354.418886685789	465.700111002508	1027.997158667829	1436.407741219360	648.493653644293	961.196813884869	1482.996397191172	478.737273393384	1051.287866145417	927.595478608143	628.337378747603	1000.530892547011	951.992894645663	358.237680275793	1052.731564598094	714.719528254073	595.917625977927	956.442377022772	614.126671229691	659.737562525428	1015.204724920393	553.392518183071	574.207536221138	996.119040808062	461.605382532790	578.683221701756	1084.022577737057	765.080609832132	392.058175585323	1027.559525264723	635.643249210153	322.645840871732	1127.236713117417	574.813151270108	385.816224999388	1143.889260337345	503.462136620406	386.066926732359	1119.138764133063	429.009138393186	374.524044527514	1037.372833001294	310.836361431031	317.634281830726	1103.148596178463	200.094836105048	379.036989280482	945.657779190819	381.157433078403	586.410368179922	852.587464522634	296.201900657191	649.163688242283	867.324071594141	196.033008061983	585.506260660375	701.480093307425	49.653381492928	553.144539480747	872.927671650316	96.859319551930	597.810924133983	779.750694428063	39.746127798911	632.226969287735	987.849243017389	39.951942759560	636.045922828303	987.789827817499	38.205672903766	410.035191539347	1065.477947492230	35.935343604849	332.705638500303	1145.792678167175	99.991875346021	362.187900823168	1275.353079605466	52.983586779933	339.896396753608	790.696192989944	1090.984031876802	261.579969038566	747.897311556913	834.755159829358	271.938298578750	1176.582944359685	1130.887257389652	762.075818698692	1392.096252736837	1218.699410298889	667.605870747387	
